<svg width="261" height="261" viewBox="0 0 261 261" fill="none" xmlns="http://www.w3.org/2000/svg">
<path d="M123.284 4.50812L68.0497 16.4117C66.0698 16.8339 64.2944 17.922 63.0194 19.4946C61.7445 21.0672 61.0471 23.0292 61.0435 25.0537V120.112C57.0135 118.712 52.7767 118 48.5104 118.005C29.2188 118.005 13.5792 132.171 13.5792 149.646C13.5792 167.12 29.2188 181.286 48.5109 181.286C61.7689 181.286 75.0294 174.079 80.541 161.792C85.3313 151.114 83.4416 138.278 83.4416 126.825V50.8351L159.509 33.1677C159.247 14.3736 141.749 0.529395 123.285 4.50863L123.284 4.50812Z" fill="#FACD66"/>
<path d="M123.257 92.1021V193.874C123.256 194.117 123.198 194.356 123.089 194.572C122.979 194.789 122.821 194.977 122.626 195.121C122.431 195.266 122.205 195.364 121.966 195.406C121.727 195.448 121.481 195.434 121.249 195.365C117.826 194.387 114.284 193.893 110.724 193.896C91.4323 193.896 75.7932 208.062 75.7932 225.536C75.7932 243.011 91.4323 257.176 110.724 257.176C123.982 257.176 137.243 249.97 142.755 237.683C147.545 227.005 145.656 214.168 145.656 202.716V119.941C145.657 119.354 145.856 118.786 146.222 118.327C146.587 117.868 147.098 117.547 147.669 117.416L221.723 100.216C222.104 100.126 222.501 100.124 222.883 100.209C223.266 100.294 223.624 100.464 223.932 100.707C224.239 100.95 224.488 101.259 224.66 101.611C224.831 101.963 224.921 102.35 224.922 102.741V186.093C224.921 186.336 224.863 186.575 224.754 186.792C224.644 187.008 224.485 187.197 224.29 187.341C224.096 187.486 223.87 187.583 223.631 187.626C223.391 187.668 223.146 187.654 222.913 187.585C219.491 186.607 215.948 186.112 212.389 186.116C193.097 186.116 177.458 200.282 177.458 217.756C177.458 235.231 193.097 249.396 212.388 249.396C224.063 249.396 235.671 243.352 242.219 233.464C248.563 223.883 247.323 213.818 247.32 202.992C247.314 183.684 247.314 164.376 247.32 145.069V67.8801C247.316 66.7152 247.051 65.5659 246.546 64.5164C246.04 63.4669 245.306 62.5438 244.398 61.8147C243.489 61.0856 242.429 60.5691 241.295 60.3028C240.161 60.0365 238.982 60.0274 237.844 60.2759L130.264 83.4601C128.284 83.8823 126.508 84.9704 125.233 86.543C123.959 88.1156 123.261 90.0777 123.257 92.1021V92.1021Z" fill="#A4C7C6"/>
<path d="M209.629 102.741C209.628 102.35 209.538 101.963 209.367 101.611C209.195 101.259 208.946 100.95 208.639 100.707C208.331 100.464 207.973 100.294 207.59 100.209C207.208 100.124 206.811 100.126 206.43 100.216L132.376 117.416C131.805 117.547 131.295 117.868 130.929 118.327C130.563 118.786 130.364 119.354 130.363 119.941V202.716C130.363 214.168 132.252 227.005 127.462 237.684C123.008 247.612 113.493 254.22 103.01 256.392C105.549 256.913 108.133 257.175 110.724 257.176C123.982 257.176 137.243 249.97 142.755 237.683C147.545 227.005 145.656 214.168 145.656 202.716V119.941C145.657 119.354 145.856 118.786 146.222 118.327C146.588 117.868 147.098 117.547 147.669 117.416L209.629 103.025V102.741ZM107.949 194.005C106.312 194.121 104.684 194.341 103.076 194.666C104.051 194.865 105.013 195.095 105.956 195.365C106.177 195.43 106.41 195.446 106.639 195.41C106.867 195.373 107.084 195.287 107.275 195.157C107.465 195.027 107.625 194.856 107.741 194.656C107.858 194.457 107.929 194.234 107.949 194.004V194.005ZM247.32 202.992C247.314 183.684 247.314 164.376 247.32 145.069V67.8801C247.316 66.7152 247.052 65.5659 246.546 64.5164C246.04 63.4669 245.306 62.5438 244.398 61.8147C243.489 61.0856 242.429 60.5691 241.295 60.3028C240.161 60.0365 238.982 60.0274 237.844 60.2759L229.416 62.0922C230.238 62.8162 230.895 63.7068 231.345 64.7048C231.795 65.7028 232.028 66.7853 232.027 67.8801V202.992C232.03 213.817 233.271 223.883 226.926 233.464C221.69 241.2 213.67 246.616 204.539 248.584C207.121 249.123 209.751 249.395 212.389 249.396C224.063 249.396 235.672 243.352 242.219 233.464C248.564 223.883 247.323 213.818 247.32 202.992V202.992ZM209.613 186.224C207.977 186.34 206.349 186.561 204.74 186.886C205.716 187.084 206.678 187.315 207.62 187.585C207.842 187.65 208.075 187.666 208.303 187.629C208.531 187.593 208.748 187.507 208.939 187.377C209.13 187.247 209.289 187.076 209.406 186.876C209.523 186.677 209.593 186.454 209.613 186.224V186.224Z" fill="#9CBCBB"/>
</svg>
